<svg width="29" height="28" viewBox="0 0 29 28" fill="none" xmlns="http://www.w3.org/2000/svg">
<g clip-path="url(#clip0_2146_517)">
<path d="M15.3523 24.1402L3.75098 13.1265V15.3765C3.75098 15.9727 3.99983 16.5465 4.45014 16.9627L13.6814 25.7265C14.6057 26.604 16.1107 26.604 17.035 25.7265L24.3939 18.7402C25.3183 17.8627 25.3183 16.434 24.3939 15.5565L15.3523 24.1402Z" fill="#616161"/>
<path d="M13.6814 20.1014C14.1436 20.5401 14.7479 20.7651 15.3523 20.7651C15.9566 20.7651 16.561 20.5401 17.0231 20.1014L24.3821 13.1151C25.3064 12.2376 25.3064 10.8089 24.3821 9.93139L15.1508 1.16764C14.7124 0.751387 14.108 0.515137 13.48 0.515137H6.12101C4.81749 0.515137 3.75098 1.52764 3.75098 2.76514V9.75139C3.75098 10.3476 3.99983 10.9214 4.45014 11.3376L13.6814 20.1014ZM6.12101 2.76514H13.48L22.7112 11.5289L15.3523 18.5151L6.12101 9.75139V2.76514Z" fill="#616161"/>
<path d="M8.78791 6.70264C9.60599 6.70264 10.2692 6.07304 10.2692 5.29639C10.2692 4.51974 9.60599 3.89014 8.78791 3.89014C7.96983 3.89014 7.30664 4.51974 7.30664 5.29639C7.30664 6.07304 7.96983 6.70264 8.78791 6.70264Z" fill="#616161"/>
</g>
<defs>
<clipPath id="clip0_2146_517">
<rect width="28.4404" height="27" fill="white" transform="translate(0.196289 0.515137)"/>
</clipPath>
</defs>
</svg>
