<svg width="30" height="32" viewBox="0 0 30 32" fill="none" xmlns="http://www.w3.org/2000/svg">
<path d="M9.18004 31.1915C8.47671 31.1915 7.88393 30.9509 7.40171 30.4698C6.9206 29.9876 6.68004 29.3948 6.68004 28.6915C6.68004 27.9893 6.9206 27.3971 7.40171 26.9148C7.88393 26.4326 8.47671 26.1915 9.18004 26.1915C9.88226 26.1915 10.4745 26.4326 10.9567 26.9148C11.4389 27.3971 11.68 27.9893 11.68 28.6915C11.68 29.3937 11.4389 29.9865 10.9567 30.4698C10.4745 30.9509 9.88226 31.1915 9.18004 31.1915ZM24.82 31.1915C24.1178 31.1915 23.5256 30.9509 23.0434 30.4698C22.5612 29.9876 22.32 29.3948 22.32 28.6915C22.32 27.9893 22.5612 27.3971 23.0434 26.9148C23.5256 26.4326 24.1178 26.1915 24.82 26.1915C25.5223 26.1915 26.115 26.4326 26.5984 26.9148C27.0817 27.3971 27.3223 27.9893 27.32 28.6915C27.3178 29.3937 27.0773 29.9865 26.5984 30.4698C26.1195 30.9532 25.5267 31.1937 24.82 31.1915ZM6.80171 5.1665L11.25 14.5248H22.3084C22.5006 14.5248 22.6712 14.4771 22.82 14.3815C22.97 14.2848 23.0984 14.1515 23.205 13.9815L27.5634 6.06484C27.6923 5.82928 27.7034 5.62039 27.5967 5.43817C27.49 5.25595 27.3078 5.16539 27.05 5.1665H6.80171ZM5.98671 3.49984H27.6867C28.41 3.49984 28.9545 3.79539 29.32 4.3865C29.6856 4.97762 29.705 5.58595 29.3784 6.2115L24.615 14.8915C24.3739 15.2971 24.0606 15.6154 23.675 15.8465C23.2895 16.0776 22.8656 16.1926 22.4034 16.1915H10.5L8.47504 19.9098C8.30393 20.1654 8.29837 20.4432 8.45837 20.7432C8.61837 21.0432 8.85893 21.1932 9.18004 21.1932H27.32V22.8598H9.18004C8.20782 22.8598 7.48226 22.4498 7.00337 21.6298C6.5256 20.8098 6.51393 19.9865 6.96837 19.1598L9.47504 14.6932L3.34671 1.83317H0.333374V0.166504H4.40337L5.98671 3.49984Z" fill="#3B3B3B"/>
</svg>
