<svg width="29" height="29" viewBox="0 0 29 29" fill="none" xmlns="http://www.w3.org/2000/svg">
<path d="M8.76295 29C8.06627 29 7.4791 28.7751 7.00144 28.3254C6.52488 27.8747 6.2866 27.3206 6.2866 26.6632C6.2866 26.0068 6.52488 25.4532 7.00144 25.0025C7.4791 24.5517 8.06627 24.3264 8.76295 24.3264C9.45852 24.3264 10.0451 24.5517 10.5228 25.0025C11.0005 25.4532 11.2393 26.0068 11.2393 26.6632C11.2393 27.3206 11.0005 27.8747 10.5228 28.3254C10.0451 28.7751 9.45852 29 8.76295 29ZM24.2549 29C23.5594 29 22.9727 28.7751 22.4951 28.3254C22.0174 27.8747 21.7786 27.3206 21.7786 26.6632C21.7786 26.0068 22.0174 25.4532 22.4951 25.0025C22.9727 24.5517 23.5594 24.3264 24.2549 24.3264C24.9516 24.3264 25.5388 24.5517 26.0164 25.0025C26.493 25.4532 26.7313 26.0068 26.7313 26.6632C26.7313 27.3206 26.493 27.8747 26.0164 28.3254C25.5388 28.7751 24.9516 29 24.2549 29ZM6.40712 4.67365L10.8134 13.4212H21.767C21.9574 13.4212 22.1264 13.3765 22.2739 13.2872C22.4224 13.1968 22.5496 13.0722 22.6552 12.9133L26.9723 5.51335C27.1 5.29317 27.111 5.09791 27.0053 4.92759C26.8997 4.7583 26.7197 4.67365 26.4655 4.67365H6.40712ZM5.59983 3.11577H27.0945C27.811 3.11577 28.3503 3.39203 28.7123 3.94456C29.0755 4.49605 29.0948 5.06468 28.7701 5.65044L24.0519 13.7639C23.813 14.143 23.5027 14.4405 23.1208 14.6566C22.7389 14.8716 22.319 14.979 21.8611 14.979H10.0705L8.06462 18.4547C7.89513 18.6936 7.88962 18.9532 8.04811 19.2336C8.20659 19.514 8.44487 19.6543 8.76295 19.6543H26.7313V21.2121H8.76295C7.79992 21.2121 7.08123 20.8289 6.60688 20.0624C6.13362 19.2959 6.12207 18.5264 6.57221 17.7536L9.05515 13.5785L2.98482 1.55788H0V0H4.03148L5.59983 3.11577Z" fill="white"/>
</svg>
