<svg width="75" height="67" viewBox="0 0 75 67" fill="none" xmlns="http://www.w3.org/2000/svg">
<path d="M2.98828 2.40625H8.9633L11.524 12.8126M11.524 12.8126L20.0598 47.5003H64.4456L72.9814 12.8126H11.524Z" stroke="#616161" stroke-width="4" stroke-linecap="round" stroke-linejoin="round"/>
<path d="M20.0599 64.8441C22.8884 64.8441 25.1814 62.5145 25.1814 59.6409C25.1814 56.7673 22.8884 54.4377 20.0599 54.4377C17.2314 54.4377 14.9385 56.7673 14.9385 59.6409C14.9385 62.5145 17.2314 64.8441 20.0599 64.8441Z" stroke="#616161" stroke-width="4" stroke-linecap="round" stroke-linejoin="round"/>
<path d="M64.4457 64.8441C67.2742 64.8441 69.5671 62.5145 69.5671 59.6409C69.5671 56.7673 67.2742 54.4377 64.4457 54.4377C61.6172 54.4377 59.3242 56.7673 59.3242 59.6409C59.3242 62.5145 61.6172 64.8441 64.4457 64.8441Z" stroke="#616161" stroke-width="4" stroke-linecap="round" stroke-linejoin="round"/>
</svg>
