<svg width="36" height="36" viewBox="0 0 36 36" fill="none" xmlns="http://www.w3.org/2000/svg">
<path d="M24.3969 29.4053L14.0222 18.864C13.7946 18.634 13.667 18.3235 13.667 18C13.667 17.6765 13.7946 17.366 14.0222 17.136L24.3947 6.59475C24.6221 6.36333 24.7495 6.05184 24.7495 5.72738C24.7495 5.40291 24.6221 5.09143 24.3947 4.86C24.2836 4.74604 24.1508 4.65548 24.0041 4.59364C23.8575 4.5318 23.7 4.49994 23.5408 4.49994C23.3816 4.49994 23.2241 4.5318 23.0775 4.59364C22.9308 4.65548 22.798 4.74604 22.6869 4.86L12.3144 15.399C11.6328 16.0932 11.251 17.0272 11.251 18C11.251 18.9729 11.6328 19.9068 12.3144 20.601L22.6869 31.14C22.7981 31.2543 22.931 31.3452 23.0778 31.4072C23.2247 31.4693 23.3825 31.5012 23.5419 31.5012C23.7014 31.5012 23.8592 31.4693 24.006 31.4072C24.1529 31.3452 24.2858 31.2543 24.3969 31.14C24.6243 30.9086 24.7518 30.5971 24.7518 30.2726C24.7518 29.9482 24.6243 29.6367 24.3969 29.4053Z" fill="#606060"/>
</svg>
