<svg width="36" height="36" viewBox="0 0 36 36" fill="none" xmlns="http://www.w3.org/2000/svg">
<path d="M11.6031 29.4053L21.9778 18.864C22.2054 18.634 22.333 18.3235 22.333 18C22.333 17.6765 22.2054 17.366 21.9778 17.136L11.6053 6.59475C11.3779 6.36333 11.2505 6.05184 11.2505 5.72738C11.2505 5.40291 11.3779 5.09143 11.6053 4.86C11.7164 4.74604 11.8492 4.65548 11.9959 4.59364C12.1425 4.5318 12.3 4.49994 12.4592 4.49994C12.6184 4.49994 12.7759 4.5318 12.9225 4.59364C13.0692 4.65548 13.202 4.74604 13.3131 4.86L23.6856 15.399C24.3672 16.0932 24.749 17.0272 24.749 18C24.749 18.9729 24.3672 19.9068 23.6856 20.601L13.3131 31.14C13.2019 31.2543 13.069 31.3452 12.9222 31.4072C12.7753 31.4693 12.6175 31.5012 12.4581 31.5012C12.2986 31.5012 12.1408 31.4693 11.994 31.4072C11.8471 31.3452 11.7142 31.2543 11.6031 31.14C11.3757 30.9086 11.2482 30.5971 11.2482 30.2726C11.2482 29.9482 11.3757 29.6367 11.6031 29.4053Z" fill="#606060"/>
</svg>
