<svg width="64" height="64" viewBox="0 0 64 64" fill="none" xmlns="http://www.w3.org/2000/svg">
<path d="M54.861 22.635C54.6934 22.5462 54.5056 22.5021 54.316 22.507C53.634 22.507 52.671 22.948 51.337 23.602C50.8028 23.8666 50.2627 24.119 49.717 24.359C49.568 26.125 49.119 28.085 48.347 30.238C49.271 30.655 50.111 31.165 50.763 31.766C49.435 32.354 47.964 32.024 47.662 32.001C46.8865 33.8538 45.9874 35.6525 44.971 37.385H49.244C49.244 37.385 53.3 31.235 54.399 28.985C54.969 27.821 55.372 26.775 55.592 25.878C55.808 25.007 55.858 24.263 55.727 23.728C55.613 23.237 55.354 22.912 54.861 22.635ZM51.649 29.893C51.3675 29.6696 51.0741 29.4616 50.77 29.27C51.14 28.035 51.408 26.844 51.574 25.709C51.8 25.602 53.278 24.878 53.783 24.677C53.766 24.858 51.988 29.303 51.649 29.893ZM13.384 31.766C14.005 31.192 14.796 30.701 15.669 30.292C14.885 28.116 14.429 26.139 14.279 24.358C13.7339 24.1182 13.1944 23.8658 12.661 23.601C11.326 22.948 10.363 22.506 9.681 22.506C9.49167 22.5011 9.30429 22.5452 9.137 22.634C8.644 22.911 8.386 23.237 8.269 23.726C8.142 24.261 8.188 25.005 8.405 25.876C8.627 26.773 9.027 27.819 9.6 28.983C10.697 31.233 14.754 37.383 14.754 37.383H19.026C18.0114 35.654 17.1137 33.859 16.339 32.01C16.091 32.027 14.388 32.229 13.384 31.766ZM12.396 29.975C12.041 29.358 10.234 24.865 10.215 24.675C10.715 24.876 12.205 25.604 12.423 25.708C12.593 26.866 12.868 28.084 13.25 29.35C12.947 29.549 12.661 29.758 12.396 29.975Z" fill="#A34B1D"/>
<path d="M61.76 22.278C61.246 20.131 57.998 13.713 50.278 17.237C49.733 16.259 46.749 11.262 39.851 13.435C39.853 13.376 39.854 11.262 39.854 11.262H36.639L34.915 9H28.875L27.273 11.263H24.145C24.145 11.263 24.146 13.377 24.148 13.435C16.559 11.263 13.869 16.991 13.72 17.238C5.21597 13.62 2.76197 20.089 2.24097 22.279C1.61497 24.891 2.20097 27.981 4.03097 31.724C4.75697 33.205 9.40097 40.705 9.85597 41.465C9.63834 41.7237 9.47551 42.0238 9.37736 42.3473C9.27922 42.6708 9.2478 43.0108 9.28502 43.3468C9.32224 43.6828 9.42731 44.0077 9.59387 44.3018C9.76043 44.596 9.985 44.8532 10.254 45.058V50.505C9.94838 50.7386 9.70067 51.0395 9.53004 51.3842C9.3594 51.7289 9.27041 52.1083 9.26997 52.493C9.27261 53.1566 9.53754 53.7923 10.007 54.2614C10.4764 54.7305 11.1123 54.9949 11.776 54.997L11.78 54.999H52.225C52.891 54.9995 53.53 54.7361 54.0022 54.2664C54.4743 53.7967 54.7411 53.159 54.744 52.493C54.744 51.677 54.349 50.951 53.742 50.493V45.07C54.0151 44.866 54.2434 44.6081 54.413 44.3123C54.5825 44.0166 54.6896 43.6892 54.7277 43.3504C54.7657 43.0116 54.7339 42.6686 54.6342 42.3426C54.5345 42.0166 54.369 41.7145 54.148 41.455C54.604 40.696 59.242 33.205 59.965 31.725C61.798 27.981 62.384 24.892 61.76 22.278ZM52.218 53H11.781C11.6453 53.0011 11.5148 52.9485 11.4177 52.8537C11.3207 52.7589 11.2651 52.6296 11.263 52.494C11.263 52.213 11.495 51.987 11.781 51.987H52.218C52.504 51.987 52.735 52.213 52.735 52.494C52.7329 52.6295 52.6774 52.7586 52.5806 52.8533C52.4837 52.9481 52.3534 53.0008 52.218 53ZM52.218 43.578H11.789C11.6534 43.5793 11.5227 43.5268 11.4258 43.4319C11.3289 43.3371 11.2736 43.2076 11.272 43.072C11.272 42.792 11.502 42.565 11.789 42.565H52.218C52.504 42.565 52.735 42.792 52.735 43.072C52.7334 43.2076 52.6781 43.3371 52.5811 43.4319C52.4842 43.5268 52.3536 43.5793 52.218 43.578ZM52.334 40.592H11.666C10.266 38.24 6.82297 32.876 5.82797 30.846C4.21297 27.538 3.67497 24.888 4.18697 22.742C4.57597 21.108 7.21597 15.65 14.699 19.905C16.473 15.213 21.341 13.4 27.358 17.054C26.65 15.586 26.145 14.21 26.145 13.262H37.853C37.853 14.21 37.349 15.586 36.642 17.054C42.544 13.525 46.997 14.868 49.3 19.905C57.279 15.556 59.423 21.108 59.814 22.742C60.325 24.888 59.787 27.538 58.171 30.846C57.178 32.875 53.735 38.239 52.334 40.592Z" fill="#A34B1D"/>
<path d="M36.074 15.84C34.9697 16.8734 33.5124 17.4461 32 17.441C30.4943 17.4456 29.0429 16.8788 27.939 15.855C28.0617 16.8476 28.5426 17.7612 29.2912 18.4244C30.0398 19.0876 31.0048 19.4548 32.005 19.457C33.0079 19.4551 33.9755 19.0861 34.7251 18.4198C35.4747 17.7535 35.9545 16.8358 36.074 15.84ZM44.265 29.172C44.265 29.172 46.3 25.161 45.399 21.495C44.563 18.094 41.988 19.078 39.465 20.373C37.882 21.186 36.086 22.021 34.103 22.263V28.366C35.169 28.548 36.178 28.854 37.006 29.321C36.174 29.791 35.166 30.096 34.103 30.276V37.385H36.997C36.271 36.24 35.326 34.588 35.326 33.737C35.326 32.356 36.44 31.237 37.814 31.237C39.188 31.237 40.302 32.356 40.302 33.737C40.302 34.589 39.357 36.241 38.631 37.385H40.049C40.264 37.02 42.717 32.842 43.533 30.977C42.577 30.556 41.705 30.035 41.031 29.407C42.029 28.891 44.265 29.172 44.265 29.172ZM36.1 24.576V23.898C37.707 23.46 42.859 21.114 42.895 21.108C43.883 22.869 43.318 25.65 42.853 27.132C42.853 27.133 39.354 25.271 36.1 24.576ZM18.601 21.495C17.799 24.599 19.74 29.183 19.74 29.183C19.74 29.183 21.695 28.953 23.119 29.406C22.415 30.06 21.497 30.599 20.49 31.029C21.302 32.874 23.736 37.019 23.95 37.384H25.369C24.643 36.239 23.699 34.587 23.699 33.736C23.699 32.355 24.812 31.236 26.187 31.236C27.562 31.236 28.675 32.355 28.675 33.736C28.675 34.588 27.729 36.24 27.004 37.384H29.903V30.267C28.837 30.083 27.829 29.779 26.993 29.32C27.825 28.855 28.835 28.549 29.903 28.367V22.262C27.919 22.022 26.104 21.21 24.534 20.373C22.259 19.161 19.476 18.104 18.601 21.495ZM27.902 24.575C24.652 25.269 21.146 27.126 21.146 27.126C20.681 25.646 19.883 22.507 21.104 21.108C21.141 21.114 26.292 23.461 27.902 23.898V24.575Z" fill="#A34B1D"/>
</svg>
