<svg width="22" height="22" viewBox="0 0 22 22" fill="none" xmlns="http://www.w3.org/2000/svg">
<path d="M19.5312 0.00732422H2.34375C1.72215 0.00732422 1.12601 0.254254 0.686468 0.693793C0.24693 1.13333 0 1.72947 0 2.35107L0 19.5386C0 20.1602 0.24693 20.7563 0.686468 21.1959C1.12601 21.6354 1.72215 21.8823 2.34375 21.8823H9.04541V14.4453H5.96924V10.9448H9.04541V8.27686C9.04541 5.24219 10.8521 3.56592 13.6191 3.56592C14.9443 3.56592 16.3301 3.80225 16.3301 3.80225V6.78076H14.8032C13.2988 6.78076 12.8296 7.71436 12.8296 8.67188V10.9448H16.188L15.6509 14.4453H12.8296V21.8823H19.5312C20.1529 21.8823 20.749 21.6354 21.1885 21.1959C21.6281 20.7563 21.875 20.1602 21.875 19.5386V2.35107C21.875 1.72947 21.6281 1.13333 21.1885 0.693793C20.749 0.254254 20.1529 0.00732422 19.5312 0.00732422Z" fill="#5F5F5F"/>
</svg>
