<svg width="23" height="22" viewBox="0 0 23 22" fill="none" xmlns="http://www.w3.org/2000/svg">
<path d="M14.0484 8.41554V11.8872C14.0484 11.9751 13.98 12.0435 13.8921 12.0435H13.3355C13.2817 12.0435 13.2329 12.0142 13.2085 11.98L11.6167 9.83155V11.8921C11.6167 11.98 11.5484 12.0484 11.4605 12.0484H10.9038C10.8159 12.0484 10.7476 11.98 10.7476 11.8921V8.42042C10.7476 8.33253 10.8159 8.26417 10.9038 8.26417H11.4556C11.5044 8.26417 11.5581 8.28858 11.5825 8.33253L13.1743 10.481V8.42042C13.1743 8.33253 13.2427 8.26417 13.3306 8.26417H13.8872C13.9751 8.25929 14.0484 8.33253 14.0484 8.41554ZM10.0444 8.25929H9.4878C9.39991 8.25929 9.33155 8.32765 9.33155 8.41554V11.8872C9.33155 11.9751 9.39991 12.0435 9.4878 12.0435H10.0444C10.1323 12.0435 10.2007 11.9751 10.2007 11.8872V8.41554C10.2007 8.33253 10.1323 8.25929 10.0444 8.25929ZM8.70167 11.1694H7.18312V8.41554C7.18312 8.32765 7.11476 8.25929 7.02687 8.25929H6.47022C6.38233 8.25929 6.31397 8.32765 6.31397 8.41554V11.8872C6.31397 11.9312 6.32862 11.9653 6.35792 11.9946C6.38722 12.0191 6.4214 12.0386 6.46534 12.0386H8.69679C8.78468 12.0386 8.85304 11.9702 8.85304 11.8823V11.3257C8.85304 11.2427 8.78468 11.1694 8.70167 11.1694ZM16.978 8.25929H14.7466C14.6636 8.25929 14.5903 8.32765 14.5903 8.41554V11.8872C14.5903 11.9702 14.6587 12.0435 14.7466 12.0435H16.978C17.0659 12.0435 17.1343 11.9751 17.1343 11.8872V11.3306C17.1343 11.2427 17.0659 11.1743 16.978 11.1743H15.4595V10.5884H16.978C17.0659 10.5884 17.1343 10.52 17.1343 10.4321V9.87062C17.1343 9.78273 17.0659 9.71437 16.978 9.71437H15.4595V9.12843H16.978C17.0659 9.12843 17.1343 9.06007 17.1343 8.97218V8.41554C17.1294 8.33253 17.061 8.25929 16.978 8.25929ZM22.6372 3.99659V17.9273C22.6323 20.1148 20.8403 21.8872 18.648 21.8823H4.7173C2.5298 21.8775 0.757334 20.0806 0.762217 17.8931V3.96241C0.7671 1.77491 2.56397 0.00245147 4.75147 0.00733428H18.6821C20.8696 0.0122171 22.6421 1.80421 22.6372 3.99659ZM19.6294 9.98292C19.6294 6.41847 16.0552 3.51808 11.6655 3.51808C7.27589 3.51808 3.70167 6.41847 3.70167 9.98292C3.70167 13.1763 6.5337 15.8521 10.3618 16.3599C11.2944 16.5601 11.187 16.9019 10.9771 18.1567C10.9429 18.3569 10.8159 18.9429 11.6655 18.5864C12.5151 18.23 16.2505 15.8862 17.9253 13.9624C19.0776 12.6929 19.6294 11.4087 19.6294 9.98292Z" fill="#5F5F5F"/>
</svg>
