<svg width="53" height="56" viewBox="0 0 53 56" fill="none" xmlns="http://www.w3.org/2000/svg">
<path d="M37.754 35.3133H35.4195L34.592 34.461C37.5881 30.749 39.2348 26.0099 39.2315 21.1088C39.2315 17.0507 38.105 13.0839 35.9944 9.70974C33.8838 6.33563 30.8839 3.70582 27.3741 2.15289C23.8643 0.599954 20.0022 0.193636 16.2762 0.985315C12.5502 1.77699 9.12763 3.73111 6.44134 6.60056C3.75505 9.47001 1.92566 13.1259 1.18452 17.1059C0.443369 21.086 0.823752 25.2114 2.27756 28.9605C3.73137 32.7096 6.19332 35.9141 9.35206 38.1686C12.5108 40.4231 16.2245 41.6264 20.0235 41.6264C24.7812 41.6264 29.1547 39.7641 32.5235 36.6706L33.3213 37.5545V40.0481L48.0968 55.7994L52.4998 51.0961L37.754 35.3133ZM20.0235 35.3133C12.6653 35.3133 6.7256 28.9686 6.7256 21.1088C6.7256 13.2489 12.6653 6.90421 20.0235 6.90421C27.3816 6.90421 33.3213 13.2489 33.3213 21.1088C33.3213 28.9686 27.3816 35.3133 20.0235 35.3133Z" fill="#3B3B3B"/>
</svg>
