<svg width="28" height="28" viewBox="0 0 28 28" fill="none" xmlns="http://www.w3.org/2000/svg">
<path d="M26.475 27.5901L16.0383 17.1534C15.205 17.8634 14.2467 18.4128 13.1633 18.8017C12.08 19.1906 10.9911 19.3851 9.89668 19.3851C7.22779 19.3851 4.9689 18.4612 3.12001 16.6134C1.27112 14.7645 0.34668 12.5062 0.34668 9.8384C0.34668 7.17063 1.27001 4.91118 3.11668 3.06007C4.96446 1.20785 7.22224 0.281738 9.89001 0.281738C12.5589 0.281738 14.8189 1.20618 16.67 3.05507C18.5211 4.90396 19.4467 7.1634 19.4467 9.8334C19.4467 10.9912 19.2417 12.1117 18.8317 13.1951C18.4206 14.2784 17.8817 15.2051 17.215 15.9751L27.6517 26.4101L26.475 27.5901ZM9.89668 17.7167C12.1078 17.7167 13.975 16.9556 15.4983 15.4334C17.0206 13.9112 17.7817 12.044 17.7817 9.83174C17.7817 7.62063 17.0206 5.75396 15.4983 4.23174C13.9761 2.70952 12.1095 1.9484 9.89834 1.9484C7.68723 1.9484 5.82001 2.70952 4.29668 4.23174C2.77446 5.75396 2.01335 7.62063 2.01335 9.83174C2.01335 12.0428 2.77446 13.9095 4.29668 15.4317C5.8189 16.954 7.68557 17.7167 9.89668 17.7167Z" fill="#5F5F5F"/>
</svg>
