<svg width="24" height="30" viewBox="0 0 24 30" fill="none" xmlns="http://www.w3.org/2000/svg">
<path d="M3.02504 30C2.25837 30 1.61837 29.7433 1.10504 29.23C0.590596 28.7156 0.333374 28.075 0.333374 27.3083V9.35833C0.333374 8.59167 0.590596 7.95167 1.10504 7.43833C1.61837 6.92389 2.25837 6.66667 3.02504 6.66667H6.16671V5.83333C6.16671 4.21333 6.73393 2.83611 7.86837 1.70167C9.00282 0.567222 10.38 0 12 0C13.62 0 14.9973 0.567222 16.1317 1.70167C17.2662 2.83611 17.8334 4.21333 17.8334 5.83333V6.66667H20.975C21.7417 6.66667 22.3817 6.92389 22.895 7.43833C23.4095 7.95167 23.6667 8.59167 23.6667 9.35833V27.3083C23.6667 28.075 23.41 28.715 22.8967 29.2283C22.3823 29.7428 21.7417 30 20.975 30H3.02504ZM3.02504 28.3333H20.975C21.2306 28.3333 21.4656 28.2267 21.68 28.0133C21.8934 27.7989 22 27.5639 22 27.3083V9.35833C22 9.10278 21.8934 8.86778 21.68 8.65333C21.4656 8.44 21.2306 8.33333 20.975 8.33333H17.8334V12.5C17.8334 12.7367 17.7539 12.935 17.595 13.095C17.435 13.2539 17.2367 13.3333 17 13.3333C16.7634 13.3333 16.565 13.2539 16.405 13.095C16.2462 12.935 16.1667 12.7367 16.1667 12.5V8.33333H7.83337V12.5C7.83337 12.7367 7.75393 12.935 7.59504 13.095C7.43504 13.2539 7.23671 13.3333 7.00004 13.3333C6.76337 13.3333 6.56504 13.2539 6.40504 13.095C6.24615 12.935 6.16671 12.7367 6.16671 12.5V8.33333H3.02504C2.76948 8.33333 2.53449 8.44 2.32004 8.65333C2.10671 8.86778 2.00004 9.10278 2.00004 9.35833V27.3083C2.00004 27.5639 2.10671 27.7989 2.32004 28.0133C2.53449 28.2267 2.76948 28.3333 3.02504 28.3333ZM7.83337 6.66667H16.1667V5.83333C16.1667 4.66 15.7656 3.67222 14.9634 2.87C14.1612 2.06778 13.1734 1.66667 12 1.66667C10.8267 1.66667 9.83893 2.06778 9.03671 2.87C8.23449 3.67222 7.83337 4.66 7.83337 5.83333V6.66667Z" fill="#5F5F5F"/>
</svg>
